<svg xmlns="http://www.w3.org/2000/svg" width="1050" height="600">
    <path style="fill:#f4d4ac;fill-opacity:1;stroke:#7b7979;stroke-width:4;stroke-linecap:round;stroke-linejoin:round;stroke-miterlimit:10;stroke-opacity:1;stroke-dasharray:none" d="m484.983 686.58 4.446 9.847 6.226-.895 4.447 5.369 1.778 9.843v3.58l-8.004 6.267h-7.115v3.58l15.12 14.321-16.009-4.478-5.336 4.478-.89-.898v-12.528l.89-2.685-2.668-1.79-13.337 1.79 1.779-2.684-9.783-8.953H450.3l.89-13.422 10.672-11.637-.89-14.318 8.894-8.952 24.01 8.058-.89 12.527-8.004 3.58M350.7 654.361l-6.225 8.949-1.779 13.427 1.78 7.158 12.45 2.685-.89 6.267 9.784-.894 3.557 4.474v17.897l-3.557 3.583 4.446 8.948 7.115 1.79-4.446 7.159-9.783 3.583-5.337 4.474.89 7.159 1.779 12.532 5.336 7.158-.89 14.322 12.451 25.954 6.226 9.843-10.672 28.639 19.562 13.427 5.336-.895.89 11.633-10.673 7.162-8-1.79-1.78 8.054-4.446.895.89 12.528-10.673 17.9-.89 8.058 4.447 8.053-15.119 8.054-6.225 19.69-3.558-2.684-6.221 1.79-26.681-4.475-12.451 5.37-15.116-9.844-8.893 2.685-9.783-10.742-9.783 5.373-9.78-1.79-.889-5.373 13.337-11.633 7.115-4.474-1.779-8.952 5.336-4.474.89-11.634-6.226-5.372v-8.949l6.226-9.847-2.668-8.948 6.225-17.006-1.779-14.318 9.783-8.952-8.893-20.585-1.779-8.054-9.783-7.159-7.115-1.79-1.779-3.579-13.336-14.321 5.336-5.369-7.115-1.79-4.447-6.267 1.779-2.685.89-20.585-1.78-.895-1.778-3.58-.89-8.053-7.114-2.685-8.005-9.847-5.336 7.163-8-.895-5.336-5.373 1.778-15.212-9.783-8.952v-.895l5.337-1.79 14.226 14.321 18.676 3.58 1.779-13.427h-7.115l-1.779-9.843-6.225.895v-8.949l9.783-.894 2.668 3.579 9.783-8.952 6.225 2.684 5.336-12.528 9.78 2.685 9.783-2.685 3.557-9.843 16.008-.898v8.057l14.226 17.006 17.788-7.163 3.557-8.054 22.23 4.475 1.78-18.796 8.003.895-1.778 13.426" transform="translate(0 -452.362)"/>
    <path style="fill:#f4d4ac;fill-opacity:1;stroke:#7b7979;stroke-width:4;stroke-linecap:round;stroke-linejoin:round;stroke-miterlimit:10;stroke-opacity:1;stroke-dasharray:none" d="m502.77 641.83 24.009 10.742-1.779 8.053-6.222 1.79-.89 4.474 13.338-1.79 7.114 3.584 15.12 1.79-1.78 4.474 5.337 9.843h2.668l.89 6.264 3.557-.895 6.222 8.057 13.34 17.006 3.557 29.534-12.45 3.58 1.778 8.948-3.557 4.478 3.557 5.369-14.226 9.843v17.9l5.333 8.054-1.78 3.58 4.448 15.216-2.668 3.58-1.78 8.057-6.221 2.684-.89 5.37-12.45 4.474-18.677 9.847-8.89-10.742-11.561-3.58-2.669 8.054-6.225 1.79-6.226 8.952-11.561 4.474-7.111-2.684-8.005-10.742-8.004 1.79-4.447-3.58-5.336 4.478-6.225-.899-28.456 10.742-4.447-4.474-7.115 4.474-3.557-1.79-5.336.896-19.562-13.427 10.672-28.639-6.226-9.843-12.45-25.954.889-14.322-5.336-7.158-1.78-12.532-.889-7.159 5.337-4.474 9.783-3.583 4.446-7.159-7.115-1.79-4.446-8.948 3.557-3.583v-17.897l-3.557-4.474-9.783.894.89-6.267-12.452-2.685-1.779-7.158 1.78-13.427 6.225-8.949 1.778-13.426 14.23.895h20.452l5.336-8.054 9.783-4.474 16.897-6.264 15.116 1.79.89 2.684-11.559 15.213 20.452-1.79 4.447-13.423 13.34-5.369 2.668-5.373 28.456 3.58 4.447 2.688-2.668 7.159 8.004 11.633" transform="translate(0 -452.362)"/>
    <path d="m461.863 685.685-10.672 11.637-.89 13.422h6.226l9.783 8.953-1.779 2.684 13.337-1.79 2.668 1.79-.89 2.685v12.528l.89.898 5.336-4.478 16.008 4.478-15.119-14.321v-3.58h7.115l8.004-6.267v-3.58l-1.778-9.843-4.447-5.37-6.226.896-4.446-9.847 8.004-3.58.89-12.527-24.01-8.058-8.893 8.952.889 14.318M845.143 498.632l-.89 9.847 9.784 13.423 10.672 12.531 8.894-2.684 4.446-2.685 13.337 1.79-.89 13.423 27.57 9.847 4.448 4.474-13.34 15.212 8.893 6.268 1.779 12.528 2.668 1.79 10.668 15.216-12.447 7.158h-10.672v17.006l-2.669 4.475-16.897 15.216-10.673-2.685-7.11 3.58-6.226-1.79-10.673 12.528 7.115 10.742-.889 5.369-6.226 5.369-12.45-.895-10.67 7.162-12.45.895-13.34-8.057-6.226.895-7.115-3.58-11.558 15.216-3.557-2.684-5.337 3.58-2.668-6.265-3.557.895-7.115 5.37-11.562-.896-7.11 7.16-10.673-9.844-12.451 15.212-3.557-1.79-12.451 4.475-9.78-.895 7.111-25.06 13.34-5.368 8.894-20.586-6.225-25.06 5.336-5.368h7.115l-4.447-11.637h5.336l1.779-5.37.89.896 7.114-2.685-1.779-6.264 7.115-1.79 8-.894 6.226 4.474.89 4.474 3.557 2.685 3.558-1.79 11.561-5.37 15.116 2.685h6.225l4.447-14.32-.89-29.535-2.667-7.158-.89-3.58 5.336-5.372-.889-2.685 6.225-17.002-4.446-4.478 1.778-8.949 8.894-5.369-5.336-11.636 8.893 3.58 25.788-5.37" style="fill:#f4d4ac;fill-opacity:1;stroke:#7b7979;stroke-width:4;stroke-linecap:round;stroke-linejoin:round;stroke-miterlimit:10;stroke-opacity:1;stroke-dasharray:none" transform="translate(0 -452.362)"/>
    <path d="m785.563 478.942-8.004 20.585 4.447 6.267 24.898-8.057 3.558-.895v3.58l5.336 11.636-8.894 5.37-1.778 8.948 4.446 4.478-6.225 17.002.89 2.685-5.337 5.372.89 3.58 2.668 7.158.889 29.534-4.447 14.321h-6.225l-15.116-2.684-11.561 5.369-3.558 1.79-3.557-2.685-.89-4.474-6.225-4.474-8 .895-7.116 1.79 1.78 6.263-7.116 2.685-.889-.895-1.779 5.369h-5.336l4.447 11.637h-7.115l-5.336 5.369 6.225 25.06-8.893 20.585-13.34 5.369-15.116-6.264-10.672 1.79-7.115-3.58-1.779-13.427-10.672-8.948-14.226-11.633-3.558 1.79v-5.373l-6.225 2.685v-5.37l-16.009-11.633 2.669-10.742 16.897-7.158.89-7.16.89-15.215 3.556-3.58-2.668-8.053h-9.783l-5.336-4.478 1.779-5.37-14.226-1.79 8.89-8.948-.89-7.162 23.124 5.373 4.447-10.742 13.336-2.685 27.57-2.684 11.562-5.37 4.443 7.16 13.34-2.685 8.005 4.474 22.23.895 10.672-3.58-.889 7.16 9.783-3.58-2.668-17.006-3.558-8.053-8.004-22.375h8.004l8.894-4.474 16.008-17.006 2.668 6.264M213.75 710.744l8.005 9.847 7.115 2.685.889 8.054 1.779 3.579 1.778.895-.889 20.585-1.779 2.685 4.447 6.267 7.115 1.79-5.336 5.369 13.336 14.321 1.78 3.58 7.114 1.79 9.783 7.158 1.779 8.054 8.893 20.585-9.783 8.952 1.78 14.318-6.226 17.006 2.668 8.948-6.226 9.847v8.949l6.226 5.372-.89 11.634-5.336 4.474 1.779 8.952-7.115 4.474-2.668-5.37-21.341-10.74 1.779-5.37-10.673-7.159-5.336 4.475-8.893.894-26.677 12.528.889-6.264-18.677.895-6.225-6.264-3.554 1.79-1.778-14.321 8-16.108 1.779-10.741-10.669-8.054-11.561-4.474.889-8.058-12.451-13.423-6.226 5.37-7.115-.895-8.89 18.795-7.114 2.685 2.668 11.633-7.115 2.684-18.677-7.158-6.225 17.9 1.779 15.216H59.017l-8.894 7.16H42.12l-1.779-12.532-10.672-10.739L27 869.16l9.783-7.16 8.004-21.48h4.447l-.89-10.741-10.672-8.949 4.447-3.58 8.004-9.846-1.778-7.16-5.337-.894-.889-7.159 9.783-17.9 9.783-2.685v-4.474l8-.895-1.774-6.268 6.221-2.684-2.668-4.474 4.447 2.684 24.902-6.264 5.336-3.58 15.116.896 4.446-5.37 8.894 5.37 7.115-1.79 3.557-7.162 8.894-19.687 11.558-6.268 4.447 4.478 17.787 2.685 3.557-8.058 3.558.895 5.336 5.373 8 .895 5.336-7.163" style="fill:#f4d4ac;fill-opacity:1;stroke:#7b7979;stroke-width:4;stroke-linecap:round;stroke-linejoin:round;stroke-miterlimit:10;stroke-opacity:1;stroke-dasharray:none" transform="translate(0 -452.362)"/>
    <path d="m870.045 776.974 8.004 10.742 7.112-2.684 8.004.894.89 4.475 8.893 1.79 13.34 10.737 15.115 14.322 6.226 15.216 14.23-1.793 4.447 3.583-5.337 2.684-9.783 18.796 4.447 14.317.89 4.475 5.336 2.684 8.893 8.057 2.668 6.264 5.333 2.685 4.447 2.684 5.336 3.58-1.779 4.478 3.557 4.474-.889 16.11 16.009 9.844 3.557 8.054 2.668 1.79h.89l19.562 12.531.889 5.37-11.558 11.636-11.562-6.267-15.119 8.952-5.336 5.369h-9.783l-.89-3.58h-5.332l-16.008 4.474-13.34 5.37-.89 10.742 4.447 6.264h-9.783l-.89 23.27-17.783 2.684-3.557-5.37-21.345 5.37-6.222-4.475-12.45-9.843-12.452.895-1.778-5.373-11.562-.895-5.336-5.369-16.005-10.738-7.115-28.642-25.788-4.475v-16.11l8.001-13.423-3.557-1.79-1.775-10.742-5.337-3.58v-5.368l-10.672-3.58-9.783 8.054-7.115-15.213-16.894-6.267 8-10.738-12.447-13.427 1.78-9.843-3.558-1.79-1.779-10.742 8.894-8.948 6.221 2.684 14.23-3.58 4.447-16.11 8.004-5.37 7.115-1.789 8.004-9.847 8.89-.895.89-4.474 11.561-3.58 5.336-3.579 1.779-12.531 12.451-5.37 5.332 5.37 6.226-4.475 10.672 3.58 6.226-7.159 13.34 4.474" style="fill:#e4a454;fill-opacity:1;stroke:#7b7979;stroke-width:4;stroke-linecap:round;stroke-linejoin:round;stroke-miterlimit:10;stroke-opacity:1;stroke-dasharray:none" transform="translate(0 -452.362)"/>
    <path style="fill:#f4d4ac;fill-opacity:1;stroke:#7b7979;stroke-width:4;stroke-linecap:round;stroke-linejoin:round;stroke-miterlimit:10;stroke-opacity:1;stroke-dasharray:none" d="m162.171 553.229 12.451 8.053 2.668.895 8.894 1.79h13.34l3.558 1.79 2.664-10.739 6.226-7.162 27.57 8.057 4.447-2.684.889 8.053 16.005 3.58 6.225 2.684.89 7.16 4.446 3.582 12.451-2.684v-3.583l26.678-4.475 4.446 9.848 5.336.894-16.897 8.054v8.948l4.446 1.79 8.894-2.684 8.894 1.79-.89 7.162 16.894 19.69-5.332 13.423 7.111 3.58-1.779 18.795-22.23-4.475-3.557 8.054-17.788 7.163-14.226-17.006v-8.057l-16.008.898-3.557 9.843-9.783 2.685-9.78-2.685-5.336 12.528-6.225-2.684-9.783 8.952-2.668-3.58-9.783.895v8.949l6.225-.895 1.779 9.843h7.115l-1.779 13.427-18.676-3.58-14.23-14.32-5.333 1.789v.895l9.783 8.952-1.778 15.212-3.561-.895-3.554 8.058-17.787-2.685-4.447-4.478-11.562 6.268-8.893 19.687-3.558 7.162-7.111 1.79-8.894-5.37-4.446 5.37-15.12-.895-5.336 3.58-24.898 6.263-4.447-2.684v-7.16l-4.447-10.741 6.226-7.159v-8.948l-5.336-6.268 8.893-8.054-16.008-6.264.89-3.579 8.004-2.684 11.561 3.579 11.562-8.952h5.332l11.562-8.054 5.336.895 6.226-6.264 16.897-29.537 8.89-3.58 6.226 1.79-2.668-5.37 2.668-9.842 13.34-10.742v-5.37l-2.668-20.585-6.225-.894-2.668-5.37-1.78-4.474 8.894-25.954-6.225-8.057.89-7.16 16.008.896-10.673 14.32M568.575 545.172l8.004 5.369 40.018-2.685.889 7.162-8.89 8.949 14.226 1.79-1.779 5.369 5.336 4.478h9.783l2.668 8.053-3.557 3.58-.89 15.216-.889 7.159-16.897 7.158-2.669 10.742 16.009 11.633v5.37l6.225-2.685v5.373l3.558-1.79 14.226 11.633 10.672 8.948 1.779 13.427 7.115 3.58 10.672-1.79 15.115 6.264-7.11 25.059 9.779.895 12.45-4.474 3.558 1.79 10.672 17.9-8.893 13.426-1.779 10.739 5.336 25.06 4.447 2.684 8.893 30.432-6.225 3.58-7.115-2.685-8.004 9.843-11.562-.895-8 7.159-14.23-2.684-11.562 8.952-4.446-2.685-6.226 2.685-14.226 10.738-13.34 8.952H612.15l-5.333 8.949-6.225 2.684-7.115-2.684-5.336-10.742-16.009.894-13.336-11.633.889-5.369 6.222-2.684 1.779-8.057 2.668-3.58-4.447-15.216 1.779-3.58-5.333-8.053v-17.9l14.226-9.844-3.557-5.37 3.557-4.477-1.779-8.949 12.451-3.58-3.557-29.533-13.34-17.006-6.222-8.057-3.558.895-.889-6.264h-2.668l-5.336-9.843 1.778-4.474-15.119-1.79-7.114-3.583-13.337 1.79.89-4.475 6.221-1.79 1.779-8.053-24.01-10.742-8.003-11.633 2.668-7.159-4.447-2.688-3.558-11.633-8.893-3.58 18.676-21.48 4.447 4.475 19.562 1.79 23.124-4.475 5.336-5.369v-15.216l4.447-6.264 2.668-7.162h8.89l.889-6.264" transform="translate(0 -452.362)"/>
</svg>